REM MD5 4218cf5daa8a38e992460ebcdd1ce3e2
FILE "PlayStation Zone CD Vol. 4 (Germany).bin" BINARY
  TRACK 01 MODE2/2352
    INDEX 01 00:00:00
  TRACK 02 AUDIO
    INDEX 00 66:21:59
    INDEX 01 66:23:59
  TRACK 03 AUDIO
    INDEX 00 68:03:18
    INDEX 01 68:05:18
REM LEADOUT 69:44:52
